<?xml version="1.0" standalone="no"?>
<!DOCTYPE svg PUBLIC "-//W3C//DTD SVG 20010904//EN"
 "http://www.w3.org/TR/2001/REC-SVG-20010904/DTD/svg10.dtd">
<svg version="1.0" xmlns="http://www.w3.org/2000/svg"
 width="1500.000000pt" height="1500.000000pt" viewBox="0 0 1500.000000 1500.000000"
 preserveAspectRatio="xMidYMid meet">

<g transform="translate(0.000000,1500.000000) scale(0.100000,-0.100000)"
fill="#000000" stroke="none">
<path d="M7520 11060 c-233 -15 -286 -31 -486 -147 l-42 -24 -20 26 c-51 64
-117 98 -230 119 -124 22 -1757 28 -2062 7 -96 -6 -373 -18 -615 -26 -699 -23
-780 -31 -1010 -95 -51 -15 -98 -36 -130 -59 -27 -20 -72 -50 -100 -66 -148
-84 -223 -142 -260 -199 -25 -38 -22 -276 5 -406 11 -52 20 -107 20 -122 l0
-28 -102 0 c-126 0 -144 -5 -156 -38 -6 -15 -13 -133 -16 -262 -3 -129 -9
-332 -12 -451 -5 -163 -4 -221 6 -238 17 -32 3 -39 -67 -30 -147 18 -542 -2
-804 -41 -145 -22 -221 -51 -263 -101 -61 -72 -59 -51 -63 -689 -2 -322 -7
-720 -12 -885 -8 -318 10 -1547 23 -1577 4 -9 22 -20 39 -24 68 -14 101 -39
114 -85 6 -24 21 -82 34 -129 50 -191 48 -186 94 -228 47 -43 98 -72 125 -72
9 0 20 -3 23 -7 19 -18 536 23 554 45 12 14 87 -18 478 -203 66 -31 158 -75
205 -97 199 -94 946 -471 952 -482 4 -6 12 -36 19 -66 6 -30 19 -86 29 -125
10 -38 26 -100 35 -138 15 -57 23 -72 56 -98 22 -17 39 -28 39 -24 0 3 7 0 15
-7 33 -30 45 -38 55 -38 5 0 10 -3 10 -7 0 -20 77 -43 132 -41 31 2 54 7 51
11 -2 4 6 5 20 2 14 -4 28 -2 31 4 4 6 27 11 52 11 24 0 52 4 62 9 9 5 59 14
111 21 52 7 106 16 120 21 14 5 55 13 91 18 156 23 247 43 268 59 23 17 61
114 96 247 9 33 26 98 39 145 l23 84 65 11 c38 6 77 20 96 34 25 19 63 29 180
47 435 69 535 85 613 99 47 8 171 28 275 44 105 17 300 48 435 70 135 22 274
45 310 50 36 5 216 35 400 66 404 67 1073 178 1690 279 543 90 930 151 1535
246 143 22 303 47 355 55 52 8 154 24 225 35 72 11 157 25 190 30 87 14 146
23 175 26 14 2 54 8 90 14 227 37 317 51 410 65 58 8 150 22 205 30 55 8 133
20 173 26 40 7 75 9 78 6 3 -3 8 -34 10 -69 3 -53 2 -59 -7 -35 -6 16 -15 24
-22 20 -6 -4 -68 -8 -137 -10 -69 -2 -138 -8 -154 -13 -16 -6 -66 -10 -111
-10 -45 0 -128 -7 -185 -15 -57 -9 -113 -15 -124 -14 -12 0 -28 1 -36 0 -13
-1 -13 -2 0 -11 12 -8 9 -10 -12 -10 -16 0 -28 -4 -28 -10 0 -5 12 -10 28 -11
23 0 24 -1 7 -8 -18 -7 -17 -9 10 -15 71 -15 281 -27 555 -32 272 -4 304 -7
403 -30 109 -26 151 -27 247 -5 25 5 68 15 95 21 28 6 58 15 67 20 10 6 34 10
54 10 19 0 44 5 56 11 11 6 47 15 80 19 72 10 84 19 102 79 8 25 29 82 46 126
18 44 39 100 49 125 15 41 22 47 66 61 43 13 52 21 62 52 13 38 25 149 43 392
6 83 15 195 20 250 5 55 14 170 20 255 6 85 15 187 20 225 5 39 12 133 16 210
3 77 7 142 9 145 2 3 7 73 10 155 4 83 9 152 10 155 2 3 6 75 10 160 6 160 7
176 25 395 6 72 12 195 13 275 2 188 3 186 -138 265 -47 26 -157 67 -235 88
-75 21 -177 40 -430 81 -118 19 -435 72 -705 116 -269 44 -546 90 -615 101
-69 10 -168 26 -220 35 -52 8 -252 39 -444 69 -192 29 -352 57 -357 62 -10 10
-53 229 -69 343 -49 374 -185 930 -261 1068 -40 71 -112 132 -191 159 -121 43
-168 44 -1418 48 -657 1 -1247 0 -1310 -5z"/>
<path d="M11993 5653 c9 -2 23 -2 30 0 6 3 -1 5 -18 5 -16 0 -22 -2 -12 -5z"/>
<path d="M11928 5643 c7 -3 16 -2 19 1 4 3 -2 6 -13 5 -11 0 -14 -3 -6 -6z"/>
<path d="M11725 5610 c-13 -6 -15 -9 -5 -9 8 0 22 4 30 9 18 12 2 12 -25 0z"/>
<path d="M11670 5599 c0 -7 -12 -8 -32 -4 l-33 6 29 -16 c24 -12 31 -13 38 -3
9 15 10 28 3 28 -3 0 -5 -5 -5 -11z"/>
<path d="M11713 5583 c9 -2 25 -2 35 0 9 3 1 5 -18 5 -19 0 -27 -2 -17 -5z"/>
<path d="M5140 4396 c0 -9 -4 -16 -9 -16 -13 0 -22 -28 -11 -35 4 -3 15 8 23
25 9 17 11 32 6 36 -5 3 -9 -2 -9 -10z"/>
<path d="M5075 4375 c-4 -16 -12 -33 -17 -36 -10 -7 -31 -119 -24 -127 3 -3 6
0 6 6 0 7 7 12 15 12 9 0 20 11 25 25 5 14 15 25 21 25 7 0 2 11 -11 25 -13
14 -21 28 -17 31 4 4 15 -4 26 -17 11 -13 20 -19 21 -12 0 6 -6 18 -14 26 -8
8 -16 27 -18 43 l-4 29 -9 -30z"/>
</g>
</svg>
